<svg version="1" xmlns="http://www.w3.org/2000/svg" width="621.333" height="621.333" viewBox="0 0 466.000000 466.000000"><path d="M179.3 57.1c-6.7.5-14.4 1.2-17 1.6l-4.8.8-.3 20.5c-.3 20 1.1 53.4 2.7 61.6l.8 4.1-13.1.6c-7.2.3-14.8 1.1-16.8 1.7l-3.8 1.1v41.4c0 47.8-1.3 43 11.7 44.3 6.3.6 3.5.8-15.2 1.2l-22.9.5-.8 3.5c-1.6 7.8-2.9 36.9-2.6 59l.3 23.4 3.9.8c2.1.5 8.8 1.2 15 1.7 9.5.7 6.8.8-18 1l-29.2.1-.6 2.7c-.4 1.6-1 17.7-1.3 35.9-.5 32.9 0 42.6 2.9 48.9l1.1 2.5h152.1c148.8 0 160-.2 169.9-3.2l3.9-1.2-.5-36.5c-.4-35.5-1.2-44.4-3.9-47.9-.8-.8-5.1-1.2-15.3-1.2h-14.2l.8-4.3c1.6-8.3 3-41.5 2.7-61.7l-.3-20.5-4-.7c-2.2-.4-9.7-1-16.7-1.4-11.7-.6-12.6-.8-11.8-2.4 2-3.7 3-20.5 3-49 0-16.2-.3-31.9-.6-34.8l-.7-5.2-29.6-.1c-25.1-.2-27.9-.3-18.5-1 6.2-.5 12.9-1.2 15-1.7l3.9-.8-.1-32.9c0-29.3-1.2-49.8-3-52.7-.7-1-107.8-.8-124.1.3z"/></svg>